<svg width="312" height="58" xmlns="http://www.w3.org/2000/svg" xmlns:xlink="http://www.w3.org/1999/xlink" xml:space="preserve" overflow="hidden"><g transform="translate(-383 -17)"><path d="M80.5535 19.3544C76.4271 18.5228 73.3465 16.7595 72.3282 15.9299L80.1873 15.9299C80.5294 15.9299 80.2446 15.5584 80.2446 15.5584 80.2446 15.5584 78.3592 13.9229 78.0784 13.7931 77.7088 13.6221 77.5948 13.7931 77.5948 13.7931L76.2283 14.9726 76.2283 15.0001 71.1549 15.0001 71.1549 12.366C74.577 12.0927 77.4077 11.7743 77.8206 11.672 75.8312 10.3923 76.3423 10.5024 74.6304 9.45066 72.9769 10.1112 65.2851 12.1615 60.8834 12.5762L60.8992 12.7847C63.0536 12.8495 65.963 12.7276 68.7623 12.5428L68.7623 15 59.586 15 59.586 15.9299 66.022 15.9299C64.4948 18.2358 61.4125 21.0665 59.2912 21.7545L59.3052 21.961C60.7447 21.6887 62.1387 21.2135 63.4451 20.5495L63.4451 28.5994 65.7114 28.5994 65.7114 27.8879 74.1861 27.8879 74.1861 28.5994 76.4546 28.5994 76.4546 20.9369C77.6515 21.5541 78.5951 21.8017 78.7349 21.619 78.9174 20.8464 78.8742 19.9107 80.2132 19.5706 80.435 19.5117 80.5058 19.6276 80.553 19.3544M64.3179 20.0817C65.9647 19.1439 67.4626 17.966 68.7623 16.5865L68.7623 20.6911 65.7114 20.6911 65.7114 20.0817ZM74.1861 26.9443 65.7114 26.9443 65.7114 24.7819 74.1861 24.7819ZM74.1861 23.8187 65.7114 23.8187 65.7114 21.6504 74.1861 21.6504ZM74.1861 20.0817 74.1861 20.6911 71.1549 20.6911 71.1549 15.9299 71.1903 15.9299C72.1412 17.6993 73.543 19.1859 75.2532 20.239Z" fill="#00487D" transform="matrix(1 0 0 1.01211 383 17.318)"/><path d="M227.418 25.7655C227.225 26.487 226.166 26.1568 225.615 26.2885 225.131 26.2289 224.643 26.2138 224.157 26.2433 224.088 26.3121 224.064 26.3789 224.18 26.4261 225.023 26.6541 225.957 26.6993 226.618 27.3383 226.915 27.6567 226.824 28.2032 226.891 28.5904 227.659 28.6429 228.43 28.5262 229.148 28.2484 229.462 28.0007 229.718 27.9496 229.779 27.0964L229.783 27.0964 229.783 23.904 238.189 23.906 238.189 23.904 238.9 23.904C239.242 23.906 238.957 23.5344 238.957 23.5344 238.957 23.5344 237.07 21.8969 236.793 21.7671 236.423 21.5981 236.307 21.7671 236.307 21.7671L234.941 22.9486 234.941 22.9762 229.783 22.9762 229.783 22.1623C231.353 21.7279 234.369 20.7135 234.369 20.7135 233.604 20.1987 232.872 19.638 232.175 19.0348 231.859 19.2884 231.566 19.5678 231.297 19.8702L222.33 19.8702 222.33 20.8295 230.349 20.8295C230.005 21.1775 229.623 21.5628 229.217 21.9677L227.418 21.9677 227.418 22.9762 218.827 22.9762 218.827 23.904 227.418 23.904Z" fill="#00487D" transform="matrix(1 0 0 1.01211 383 17.318)"/><path d="M231.262 14.3585C231.262 14.3585 229.685 13.694 229.498 13.6075 229.249 13.4935 229.333 13.6292 229.296 13.7078 229.132 14.0346 228.929 14.3397 228.69 14.616 228.162 14.3734 227.596 14.2237 227.017 14.1736 227.017 14.2228 226.966 14.2424 227 14.2739 227 14.2739 227.45 14.6848 228.02 15.3158 227.286 15.9885 226.493 16.5938 225.651 17.1243 225.134 17.6099 227.031 16.914 228.683 16.0943 228.99 16.4773 229.274 16.8791 229.532 17.2973 230.074 17.8202 230.896 16.6584 230.41 15.8859 230.261 15.7174 230.1 15.5585 229.931 15.4102 230.181 15.2634 230.418 15.0936 230.637 14.903Z" fill="#00487D" transform="matrix(1 0 0 1.01211 383 17.318)"/><path d="M220.403 20.4143C220.609 19.8549 220.672 19.2525 220.584 18.6628L236.249 18.6628C235.882 19.3842 235.42 20.2787 234.908 21.2262 234.655 21.7 239.153 18.5213 239.153 18.5213 239.153 18.5213 237.502 17.2671 237.132 17.0115 236.978 17.2295 236.846 17.4627 236.739 17.7074L236.579 17.7074 236.579 9.86392 234.313 9.53367 234.313 10.5283 231.39 10.5283 231.39 11.2282 234.313 11.2282 234.313 13.0072 231.39 13.0072 231.39 13.707 234.313 13.707 234.313 15.4841 231.39 15.4841 231.39 16.1839 234.313 16.1839 234.313 17.7074 222.811 17.7074 222.811 16.2055 223.969 16.2055 223.969 16.233 226.283 16.233C226.481 16.233 226.314 16.0149 226.314 16.0149 226.314 16.0149 225.205 15.0516 225.043 14.9769 224.824 14.8747 224.757 14.9769 224.757 14.9769L224.091 15.5037 222.811 15.5037 222.811 13.707 226.283 13.707C226.481 13.707 226.314 13.4888 226.314 13.4888 226.314 13.4888 225.205 12.5275 225.043 12.4509 224.824 12.3506 224.757 12.4509 224.757 12.4509L224.056 13.0072 222.811 13.0072 222.811 11.4621C223.873 11.3642 224.925 11.1761 225.955 10.8999L226.576 10.9805C226.798 11.0788 226.794 10.6522 226.794 10.6522 226.794 10.6522 224.987 9.66538 224.846 9.50222 224.653 9.28593 224.482 9.66145 224.482 9.66145L222.811 10.9844 222.811 9.74598 220.545 9.74598 220.545 17.7074 220.366 17.7074C220.224 17.2641 220.049 16.8323 219.841 16.4159 219.788 16.4512 219.731 16.4061 219.717 16.4651 219.39 17.8295 218.887 19.1457 218.221 20.3809 217.999 21.3442 219.862 21.4818 220.403 20.4143" fill="#00487D" transform="matrix(1 0 0 1.01211 383 17.318)"/><path d="M226.182 13.1164C225.733 13.6138 227.145 12.9946 228.505 12.2043 228.699 12.5169 228.892 12.8471 229.069 13.2029 229.564 13.775 230.484 12.6859 230.068 11.8761 229.956 11.7245 229.836 11.58 229.706 11.4436 229.965 11.2689 230.21 11.0729 230.437 10.8578L231.074 10.3546C231.074 10.3546 229.63 9.70588 229.441 9.61736 229.193 9.50143 229.28 9.64101 229.24 9.71964 229.069 10.0504 228.868 10.365 228.64 10.6593 228.142 10.4005 227.606 10.2226 227.052 10.1324 227.05 10.1796 226.997 10.1954 227.027 10.2288 227.371 10.6109 227.692 11.0126 227.99 11.4318 227.428 12.036 226.824 12.599 226.182 13.1165" fill="#00487D" transform="matrix(1 0 0 1.01211 383 17.318)"/><path d="M110.435 27.6462C111.377 25.708 109.439 27.6462 109.993 22.8025 109.903 22.6217 109.81 22.7062 109.765 22.775 109.297 23.985 108.705 25.1437 108 26.2329 107.703 26.1877 104.599 26.2742 103.413 26.2329 102.615 26.2034 101.459 26.3744 101.572 25.4937L101.572 23.9426 105.466 23.9426 105.466 24.6542 107.714 24.6542 107.714 20.7581C108.375 21.4237 109.186 21.9201 110.079 22.205 110.761 22.433 110.659 22.1755 110.819 21.9494 111.025 21.0609 111.121 20.4456 112.124 20.1704 112.102 20.1271 112.147 20.0347 112.102 20.0111 109.708 19.4922 108.328 19.3349 106.68 17.4773L111.862 17.4773C112.204 17.4773 111.919 17.1057 111.919 17.1057 111.919 17.1057 110.034 15.4701 109.755 15.3404 109.385 15.1713 109.27 15.3404 109.27 15.3404L107.903 16.5198 107.4 16.5198 107.4 13.3471 111.292 13.3471C111.634 13.3471 111.349 12.9775 111.349 12.9775 111.349 12.9775 109.466 11.34 109.185 11.2122 108.815 11.0392 108.701 11.2122 108.701 11.2122L107.4 12.3327 107.4 9.98558 105.134 9.67302 105.134 12.3897 102.114 12.3897 102.114 9.67302 99.8653 9.67302 99.8653 12.3897 96.9262 12.3897C96.9161 12.1951 96.8594 12.0056 96.7611 11.8373 96.5628 11.6093 95.3654 10.2706 92.2617 10.0996 92.2617 10.1664 92.1887 10.1939 92.2342 10.2392 93.4339 11.2206 94.4712 12.3849 95.3087 13.6892 95.7529 14.33 96.3859 13.9722 96.7161 13.3471L97.5199 13.3471C96.6398 16.3339 95.4114 19.2067 93.8596 21.9062 93.4827 22.4858 92.8447 22.8424 92.1533 22.8596L91.3339 22.9519C91.267 22.9972 91.1508 23.0916 91.2434 23.2036 91.7444 23.3628 91.495 23.1171 91.9511 23.3452 93.9736 23.7717 93.2895 27.2059 93.5176 28.4149 93.4608 29.154 95.9102 28.871 96.1657 26.9622 96.1084 25.423 95.5973 24.7114 94.9981 23.7442 95.0233 23.6282 95.0531 23.4945 95.0902 23.3412 95.1357 23.3353 95.1828 23.3254 95.2396 23.3156 96.7571 22.9917 98.1646 22.2798 99.3244 21.2496L99.3244 26.4196 99.3267 26.4196 99.3284 26.5631C99.4795 27.5062 100.277 28.2105 101.231 28.2439 103.539 28.2714 106.038 28.2734 107.974 28.24 109.452 28.2144 110.109 28.1024 110.435 27.6463M102.114 13.3471 105.134 13.3471 105.134 16.5198 102.114 16.5198ZM101.572 18.812C101.891 18.3822 102.188 17.9368 102.462 17.4772L105.539 17.4772C105.805 18.0541 106.107 18.6135 106.444 19.152L105.468 19.0164 105.468 19.8066 101.572 19.8066ZM101.572 20.764 105.468 20.764 105.466 22.9853 101.572 22.9853ZM95.2396 23.003C95.2199 23.0128 95.1924 23.0266 95.1671 23.0404 95.5013 21.7449 96.15 19.5413 96.7476 17.4772L99.5014 17.4772C99.0122 18.8336 97.7266 21.7017 95.2396 23.003M99.8653 16.5198 97.0206 16.5198C97.3862 15.244 97.7047 14.0961 97.8776 13.3471L99.8653 13.3471Z" fill="#00487D" transform="matrix(1 0 0 1.01211 383 17.318)"/><path d="M93.9163 18.2171C94.6571 18.9583 95.8231 17.364 95.1705 16.2808 94.8284 15.8818 94.0871 14.8281 91.2681 14.5431 91.2681 14.6099 91.1957 14.6355 91.2406 14.6807 92.2814 15.7393 93.1806 16.928 93.9163 18.2171" fill="#00487D" transform="matrix(1 0 0 1.01211 383 17.318)"/><path d="M160.927 23.2439 160.927 24.6059 169.05 24.6059 169.05 25.5792 160.927 25.5792 160.927 26.9412 169.05 26.9412 169.05 27.8848 160.927 27.8848 160.927 28.5964 158.653 28.5964 158.653 21.8207 160.927 21.8207 160.927 22.2846 169.05 22.2846 169.05 23.2439 160.927 23.2439Z" fill="#00487D" transform="matrix(1 0 0 1.01211 383 17.318)"/><path d="M166.101 10.4961C166.582 10.095 166.852 9.8159 166.738 9.77266 165.641 9.54069 164.373 9.34412 162.949 9.11805L162.851 9.22814C162.047 10.6022 159.631 13.0182 157.298 14.6714L157.288 14.6714 157.288 14.6773C156.358 15.3856 155.32 15.9397 154.213 16.3187 154.216 16.5723 155.582 16.4387 157.288 15.8745L157.288 21.3374 159.556 21.3374 159.555 14.923C159.749 14.8208 159.94 14.7186 160.129 14.6066L166.755 14.6066 166.755 14.6164 169.623 14.6164C169.849 14.7756 170.076 14.9289 170.304 15.0744L170.304 15.908 159.568 15.908 159.568 16.8633 163.974 16.8633 163.974 19.867 162.823 19.867C163.205 19.4821 163.262 18.8816 162.959 18.432 162.684 18.1725 162.075 17.4747 160.034 17.4825 160.04 17.5317 159.991 17.5552 160.026 17.5828 160.834 18.2512 161.555 19.0186 162.171 19.867L159.568 19.867 159.568 20.8244 170.304 20.8224 170.304 21.3375 172.57 21.3375 172.57 16.2047C172.723 16.2554 172.879 16.2981 173.036 16.3325 173.749 16.3915 173.962 16.5861 174.099 16.1064 174.128 15.5246 174.356 14.9705 174.746 14.5377 174.948 14.3117 175.53 13.9578 175.599 13.6845L175.572 13.5706C172.674 13.1164 170.52 13.6689 166.101 10.4961M166.728 13.7121 166.73 13.779 161.505 13.779C162.607 13.0772 164.414 11.821 165.595 10.899 166.192 11.6497 166.855 12.3446 167.577 12.9749ZM170.304 19.867 166.572 19.867C167.482 19.4463 169.841 18.0329 169.841 18.0329 169.841 18.0329 168.094 17.3527 167.797 17.1483 167.756 17.1188 167.262 18.1194 166.266 19.867L165.886 19.867 165.886 16.8633 170.304 16.8633Z" fill="#00487D" transform="matrix(1 0 0 1.01211 383 17.318)"/><path d="M171.472 28.6003 171.472 21.9341 169.048 21.6218 169.204 28.6003 171.472 28.6003Z" fill="#00487D" transform="matrix(1 0 0 1.01211 383 17.318)"/><path d="M198.292 16.2621 206.766 16.2621C207.11 16.2621 206.825 15.8926 206.825 15.8926 206.825 15.8926 204.942 14.255 204.661 14.1272 204.29 13.9563 204.177 14.1272 204.177 14.1272L202.809 15.2085 202.811 15.236 197.619 15.236 197.619 9.54109 195.07 9.54109 195.07 15.236 186.882 15.236 186.882 16.2621 195.046 16.2621C194.873 19.1459 193.975 25.8394 186.257 28.4795 186.324 28.623 186.448 28.5975 186.639 28.5955 196.546 27.3237 197.531 18.6997 197.615 16.3683 199.749 26.3388 203.896 28.735 205.455 28.5955 205.74 28.568 205.113 26.8008 207.547 26.3447L207.519 26.1737C205.585 25.6115 200.371 22.9596 198.292 16.2621" fill="#00487D" transform="matrix(1 0 0 1.01211 383 17.318)"/><path d="M126.855 13.6602C127.624 14.7709 128.964 12.8916 128.308 11.8085 128.109 11.5804 126.912 10.2417 123.808 10.0707 123.808 10.1376 123.735 10.1631 123.779 10.2083 124.98 11.1898 126.018 12.3547 126.855 13.6602" fill="#00487D" transform="matrix(1 0 0 1.01211 383 17.318)"/><path d="M127.739 26.9358C127.682 25.3985 127.171 24.6869 126.571 23.7158 126.693 23.1458 126.99 22.0646 127.354 20.7927 127.574 21.3019 128.598 21.5122 129.254 21.0404L131.189 21.0404C131.722 22.6577 132.628 24.1266 133.834 25.3278 132.123 26.6424 130.157 27.5869 128.061 28.1015 128.061 28.1468 128.03 28.249 128.081 28.247 130.515 28.1382 132.894 27.4953 135.052 26.3638 138.128 28.6067 141.616 28.705 141.616 28.418 141.68 26.8454 142.691 26.4228 143.351 26.0827 143.467 25.8822 143.259 25.8547 142.974 25.8547 141.001 25.9298 139.029 25.6665 137.145 25.0762 138.612 24.0119 139.924 22.749 141.043 21.3235L141.472 20.7829C141.472 20.7829 141.059 20.5194 140.542 20.1931 141.832 19.4127 143.552 18.2765 143.552 18.2765 143.552 18.2765 141.672 17.1088 141.301 16.8512 141.112 17.1241 140.949 17.4144 140.815 17.7182L129.972 17.7182C129.927 17.4312 129.866 17.1245 129.779 16.7864 129.722 16.808 129.675 16.753 129.65 16.8061 129.087 17.9877 128.382 19.0961 127.55 20.1066 128.342 17.3663 129.329 14.0422 129.547 12.8627 129.547 12.8627 129.677 11.5809 129.144 13.1477 128.262 16.1963 127.017 19.1274 125.433 21.8778 125.056 22.4576 124.418 22.8149 123.726 22.8332L122.907 22.9255C122.838 22.9708 122.724 23.0632 122.814 23.1772 123.316 23.3365 123.066 23.0887 123.524 23.3188 125.545 23.7453 124.861 27.1815 125.091 28.3885 125.034 29.1296 127.483 28.8446 127.739 26.9358M135.134 24.2053C133.775 23.4591 132.636 22.3673 131.833 21.0404L137.786 21.0404C137.007 22.1787 136.118 23.2386 135.134 24.2053M130.052 18.646 140.334 18.646C140.165 18.9704 139.98 19.3301 139.777 19.7154 139.453 19.5149 139.144 19.3262 138.907 19.1866 138.708 19.4845 138.525 19.7929 138.36 20.1106L129.84 20.1106C130.001 19.6396 130.073 19.1431 130.052 18.646" fill="#00487D" transform="matrix(1 0 0 1.01211 383 17.318)"/><path d="M125.489 18.1902C126.23 18.9313 127.397 17.337 126.743 16.2539 126.401 15.8548 125.66 14.8011 122.841 14.5142 122.841 14.583 122.768 14.6085 122.812 14.6537 123.853 15.712 124.753 16.9007 125.489 18.1902" fill="#00487D" transform="matrix(1 0 0 1.01211 383 17.318)"/><path d="M137.933 16.7658 140.202 16.7658 140.202 13.8604 140.76 13.8604 140.76 13.8486 143.422 13.8486C143.697 13.8486 143.467 13.5498 143.467 13.5498 143.467 13.5498 141.94 12.2229 141.713 12.1187 141.413 11.9811 141.322 12.1187 141.322 12.1187L140.387 12.9326 140.202 12.9326 140.202 9.95632 137.933 9.64179 137.933 10.5382 130.076 10.5382 130.076 11.466 137.933 11.466 137.933 12.9325 130.559 12.9305 130.559 13.8603 137.933 13.8603 137.933 15.3249 130.076 15.3249 130.076 16.2528 137.933 16.2528Z" fill="#00487D" transform="matrix(1 0 0 1.01211 383 17.318)"/><path d="M66.0613 38.7333 65.6502 38.7333 65.6502 38.7844C66.063 38.9614 66.0613 39.8184 66.0613 39.8421L66.0613 44.0941 61.6894 44.0941 61.6894 39.8518C61.6894 39.8518 61.6754 38.9633 62.096 38.7844L62.096 38.7333 59.6725 38.7333 59.6725 38.7844C60.0909 38.9633 60.0853 39.8518 60.0853 39.8518L60.0949 50.1074C60.0949 50.1074 60.105 50.9901 59.6843 51.169L59.6843 51.2201 62.096 51.2201 62.096 51.169C61.6754 50.9901 61.6894 50.0937 61.6894 50.0937L61.6894 45.476 66.0613 45.476 66.0613 50.1448C66.0574 50.3177 66.0158 51.0137 65.6502 51.169L65.6502 51.2201 68.0624 51.2201 68.0624 51.169C67.6418 50.9901 67.6513 50.1074 67.6513 50.1074L67.6496 50.1074 67.6513 39.8479C67.6513 39.8479 67.6418 38.9633 68.0624 38.7844L68.0624 38.7333 66.0613 38.7333Z" fill="#00487D" transform="matrix(1 0 0 1.01211 383 17.318)"/><path d="M97.316 44.5652C97.735 44.7441 97.7271 45.6267 97.7271 45.6267L97.7232 45.6346 97.7192 49.6134C97.0464 50.0166 96.2691 50.2097 95.4861 50.1677 93.9803 50.1677 93.1839 49.4737 93.1839 46.7414L93.1839 42.5169C93.1839 39.9043 95.0042 39.8119 95.5075 39.8119 96.5319 39.6842 98.0928 40.095 98.6252 40.8931L98.6645 40.8912 98.6645 38.9018C97.6367 38.5833 96.5617 38.4417 95.4861 38.483 92.838 38.483 91.5585 40.0753 91.5585 42.5699L91.5585 46.6706C91.5585 50.1343 92.838 51.5005 95.4861 51.5005 96.8206 51.5258 98.1394 51.2033 99.3115 50.5648L99.3115 44.5102 97.316 44.5122Z" fill="#00487D" transform="matrix(1 0 0 1.01211 383 17.318)"/><path d="M89.0569 38.693 87.6399 38.693 87.6399 38.697 87.231 38.697 87.231 38.75C87.5747 38.8955 87.6298 39.5108 87.6399 39.729L87.6399 49.2297 82.7468 38.693 80.4979 38.693 80.4979 38.697 79.8453 38.697 79.8453 38.75C80.2632 39.0788 80.5041 39.5829 80.4979 40.1143L80.4979 50.2342C80.4805 50.4937 80.4058 51.0146 80.093 51.1463L80.093 51.1995 82.3205 51.1995 82.3205 51.1464C82.0116 51.0146 81.9352 50.5016 81.9156 50.2402L81.9156 40.3541 81.9509 40.3541C81.9509 40.3541 83.9184 44.7752 85.9729 49.1333 87.1069 51.5356 89.0569 51.4392 89.0569 51.4392L89.0569 39.6622C89.0749 39.4027 89.1513 38.8817 89.4619 38.75L89.4619 38.697 89.0569 38.697Z" fill="#00487D" transform="matrix(1 0 0 1.01211 383 17.318)"/><path d="M74.0968 38.4699C71.4469 38.4699 70.1669 40.0622 70.1669 42.5548L70.1669 46.6575C70.1669 50.1192 71.4469 51.4874 74.0968 51.4874 76.7444 51.4874 78.0261 50.1192 78.0261 46.6575L78.0261 42.5548C78.0261 40.0622 76.7444 38.4699 74.0968 38.4699M76.3985 46.7262C76.3985 49.4626 75.6026 50.1526 74.0968 50.1526 72.591 50.1526 71.7946 49.4626 71.7946 46.7262L71.7946 42.5017C71.7946 39.8892 73.5953 39.8027 74.0968 39.8027 74.5978 39.8027 76.3985 39.8892 76.3985 42.5017Z" fill="#00487D" transform="matrix(1 0 0 1.01211 383 17.318)"/><path d="M133.959 38.7418C134.299 38.8872 134.356 39.4907 134.368 39.7149L134.368 49.2431 129.473 38.7084 128.467 38.7084 128.467 38.6888 126.573 38.6888 126.573 38.7418C126.992 39.0719 127.233 39.5774 127.226 40.11L127.226 50.2476C127.206 50.5091 127.134 51.028 126.821 51.1617L126.821 51.2128 129.049 51.2128 129.049 51.1617C128.74 51.03 128.663 50.5189 128.644 50.2574L128.644 40.3675 128.679 40.3675C128.679 40.3675 130.647 44.7906 132.701 49.1487 133.835 51.5509 135.785 51.4546 135.785 51.4546L135.785 39.654C135.803 39.3944 135.878 38.8755 136.19 38.7418L136.19 38.6888 133.959 38.6888Z" fill="#00487D" transform="matrix(1 0 0 1.01211 383 17.318)"/><path d="M115.044 49.9835 111.168 44.3515 115.695 38.7156 115.292 38.7156 115.292 38.7117 113.173 38.7117 113.173 38.7648C113.814 39.1108 112.792 40.0091 112.122 40.9488L112.123 40.9468 109.54 44.1962 109.489 44.1962 109.489 39.7162C109.503 39.4783 109.566 38.9063 109.896 38.7648L109.896 38.7117 107.49 38.7117 107.49 38.7648C107.854 38.9201 107.895 39.6022 107.899 39.7811L107.899 50.0818 107.895 50.0818C107.895 50.0818 107.905 50.9664 107.484 51.1453L107.484 51.1964 107.899 51.1964 107.899 51.1984 109.485 51.1984 109.485 51.1964 109.898 51.1964 109.898 51.1453C109.48 50.9664 109.488 50.0818 109.488 50.0818L109.489 44.6798 109.54 44.6798 113.472 50.5634C113.769 51.1198 114.087 51.1964 115.165 51.1964L116.385 51.1964 116.385 51.1434C115.877 50.8342 115.424 50.4422 115.044 49.9835" fill="#00487D" transform="matrix(1 0 0 1.01211 383 17.318)"/><path d="M144.031 44.5696C144.45 44.7485 144.442 45.6311 144.442 45.6311L144.438 45.639 144.434 49.6177C143.761 50.0201 142.984 50.213 142.201 50.1721 140.695 50.1721 139.899 49.4782 139.899 46.7457L139.899 42.5212C139.899 39.9068 141.721 39.8163 142.222 39.8163 143.247 39.6886 144.809 40.0994 145.34 40.8955L145.378 40.8955 145.378 38.9062C144.35 38.5875 143.276 38.4459 142.201 38.4874 139.553 38.4874 138.273 40.0797 138.273 42.5723L138.273 46.675C138.273 50.1387 139.553 51.5049 142.201 51.5049 143.535 51.5302 144.854 51.2077 146.026 50.5692L146.026 44.5146 144.031 44.5166Z" fill="#00487D" transform="matrix(1 0 0 1.01211 383 17.318)"/><path d="M120.806 38.4833C118.159 38.4852 116.882 40.0775 116.884 42.5662L116.888 46.6629C116.892 50.1207 118.171 51.485 120.817 51.483 123.461 51.4811 124.739 50.1128 124.735 46.657L124.733 42.5584C124.73 40.0696 123.45 38.4813 120.806 38.4833M120.815 50.1521C119.311 50.1541 118.515 49.4622 118.513 46.7317L118.509 42.5131C118.508 39.9026 120.304 39.8141 120.805 39.8141 121.307 39.8141 123.105 39.8987 123.108 42.5093L123.111 46.7278C123.115 49.4582 122.319 50.1502 120.815 50.1522" fill="#00487D" transform="matrix(1 0 0 1.01211 383 17.318)"/><path d="M196.892 38.7434 195.298 38.7434 195.298 38.7453 194.885 38.7453 194.885 38.7984C195.305 38.9773 195.298 39.8599 195.298 39.8599L195.298 50.1312C195.298 50.1312 195.305 51.0158 194.885 51.1947L194.885 51.2458 197.297 51.2458 197.297 51.1947C196.982 51.061 196.909 50.5302 196.892 50.2747L196.892 39.7184C196.909 39.4609 196.982 38.9321 197.297 38.7984L197.297 38.7453 196.892 38.7453Z" fill="#00487D" transform="matrix(1 0 0 1.01211 383 17.318)"/><path d="M215.707 38.7434 208.711 38.7434 208.709 38.7453C208.54 38.7304 208.374 38.6893 208.218 38.6234L208.18 38.6235 207.726 40.6817 207.766 40.6817C208.074 40.3001 208.55 40.0932 209.039 40.1273L211.178 40.1273 211.178 50.1312 211.176 50.1312C211.176 50.1312 211.184 51.0158 210.765 51.1947L210.765 51.2458 213.175 51.2458 213.175 51.1947C212.841 51.0512 212.78 50.4595 212.768 50.2295L212.768 40.1273 215.153 40.1273C215.501 40.1029 215.815 40.3383 215.888 40.6796L215.928 40.6796 216.342 38.6235 216.303 38.6235C216.119 38.7168 215.913 38.7582 215.707 38.7434" fill="#00487D" transform="matrix(1 0 0 1.01211 383 17.318)"/><path d="M200.761 41.7032C200.705 40.7436 201.436 39.9194 202.396 39.8626 202.491 39.8569 202.587 39.8592 202.682 39.8692 202.846 39.8548 203.011 39.8489 203.175 39.8515L203.175 39.8554C203.899 39.8337 205.326 40.1463 205.851 40.8245L205.796 38.8725C204.947 38.6105 204.065 38.4754 203.177 38.4715L203.177 38.4951C203.053 38.4872 202.93 38.4834 202.804 38.4834 200.708 38.4834 199.134 39.6609 199.134 41.8763 199.134 45.6329 204.948 45.3204 204.948 48.0902 204.948 49.478 203.924 50.0324 202.762 50.1012L202 50.0834C200.912 50.1156 199.863 49.673 199.128 48.8706L199.562 51.0211C200.538 51.3418 201.559 51.5038 202.585 51.5008 204.581 51.5755 206.576 50.6123 206.576 48.0214 206.576 44.0564 200.761 44.4554 200.761 41.7033" fill="#00487D" transform="matrix(1 0 0 1.01211 383 17.318)"/><path d="M192.884 38.7434 185.703 38.7434 185.703 38.7453 185.565 38.7453C185.396 38.7306 185.23 38.6895 185.074 38.6234L185.035 38.6235 184.58 40.6718 184.619 40.6718C184.976 40.2584 185.519 40.0552 186.058 40.1332L186.058 40.1273 188.026 40.1273 188.026 50.2059C188.019 50.4162 187.967 51.0472 187.618 51.1947L187.618 51.2458 190.029 51.2458 190.029 51.1947C189.67 51.0414 189.624 50.371 189.619 50.1843L189.619 40.1273 191.655 40.1273 191.651 40.1332C192.08 40.1332 192.575 40.1096 192.742 40.7151L192.781 40.7151 193.198 38.6588 193.157 38.6588C193.073 38.7071 192.98 38.7359 192.884 38.7434" fill="#00487D" transform="matrix(1 0 0 1.01211 383 17.318)"/><path d="M160.081 44.7314 160.081 44.6449C161.69 44.2812 162.226 43.2433 162.226 41.6864 162.208 41.0976 162.035 40.524 161.725 40.0233 161.259 39.3333 160.67 38.7436 158.94 38.7436L154.871 38.7436 154.871 38.7455 154.463 38.7455 154.463 38.7967C154.801 38.9402 154.859 39.5338 154.871 39.7619L154.871 50.2297C154.859 50.4597 154.801 51.0514 154.463 51.1949L154.463 51.248 156.876 51.248 156.876 51.2401 158.886 51.2401C160.308 51.2401 162.643 50.9295 162.643 47.7273 162.643 46.0131 161.863 44.9398 160.081 44.7313M156.464 40.1275 158.713 40.1275C159.677 40.0321 160.536 40.736 160.631 41.6998 160.641 41.8045 160.643 41.9098 160.634 42.0146 160.634 43.2276 160.029 43.9883 158.782 44.004L156.464 44.004ZM158.713 49.8562 156.464 49.8562 156.464 45.3899 158.159 45.3899C159.787 45.3899 161.016 45.7359 161.016 47.7272 161.031 48.8927 160.098 49.8496 158.932 49.8647 158.859 49.8657 158.786 49.8628 158.713 49.8562" fill="#00487D" transform="matrix(1 0 0 1.01211 383 17.318)"/><path d="M180.008 38.7434 176.304 38.7434 176.304 38.7473 175.744 38.7473 175.744 38.7984C176.206 39.0441 176.29 39.7596 176.304 40.432L176.304 41.0571C176.304 41.1003 176.302 41.1436 176.302 41.1829L176.304 41.1809 176.304 50.2295C176.292 50.4575 176.233 51.0512 175.895 51.1947L175.895 51.2458 178.307 51.2458 178.307 51.1947C177.89 51.0158 177.896 50.1332 177.896 50.1332L177.896 45.7357 179.99 45.7357C181.271 45.7357 183.487 45.148 183.487 42.3093 183.487 39.3665 181.687 38.7434 180.008 38.7434M179.644 44.3517 177.896 44.3517 177.896 40.1273 180.094 40.1273C180.44 40.1273 181.859 40.318 181.859 42.2228 181.859 44.1788 180.3 44.3517 179.644 44.3517" fill="#00487D" transform="matrix(1 0 0 1.01211 383 17.318)"/><path d="M173.225 48.7598C173.221 48.7539 173.22 48.7472 173.22 48.7402L169.972 38.7638 167.949 38.7638 167.945 38.7776 167.377 38.7776 167.377 38.8287C167.762 38.9899 167.746 39.3516 167.636 39.7506L167.521 40.1202C167.475 40.2499 167.43 40.3778 167.395 40.4996L167.4 40.4937 164.397 49.9649C164.234 50.4548 163.925 50.8833 163.512 51.1935L163.512 51.2466 166.252 51.2466 166.252 51.1935C165.859 50.9596 165.765 50.8318 165.834 50.4819L166.854 47.1695 171.033 47.1695 172.012 50.4406C172.101 50.82 172.026 50.9517 171.619 51.1935L171.619 51.2466 174.505 51.2466 174.505 51.1935C174.077 50.8687 173.76 50.4197 173.596 49.9079ZM167.251 45.7856 168.883 40.2343 168.918 40.2343 170.601 45.7856Z" fill="#00487D" transform="matrix(1 0 0 1.01211 383 17.318)"/><path d="M247.862 38.7434 246.27 38.7434 246.27 38.7453 245.855 38.7453 245.855 38.7984C246.142 38.9203 246.238 39.3685 246.27 39.6417L246.27 50.3514C246.238 50.6246 246.142 51.0728 245.855 51.1947L245.855 51.2458 248.267 51.2458 248.267 51.1947C247.956 51.061 247.88 50.546 247.862 50.2845L247.862 39.7853C247.87 39.5749 247.923 38.9459 248.271 38.7984L248.271 38.7453 247.862 38.7453Z" fill="#00487D" transform="matrix(1 0 0 1.01211 383 17.318)"/><path d="M257.303 38.7402 257.303 38.7932C257.444 38.8404 257.535 38.9789 257.521 39.1275L254.696 49.5815 254.661 49.5815 251.806 38.7441 250.076 38.7441 250.08 38.752 249.807 38.754 249.807 38.8051C250.083 39.118 250.289 39.4858 250.412 39.8842L250.684 40.7984C250.723 40.9516 250.764 41.105 250.804 41.2564L250.817 41.2505 252.927 48.404C253.599 50.6293 254.269 51.1463 255.506 51.4942L256.384 48.4178 259.251 38.7441 257.887 38.7441Z" fill="#00487D" transform="matrix(1 0 0 1.01211 383 17.318)"/><path d="M266.218 49.8562 265.995 49.8562C265.952 49.8543 265.913 49.8562 265.869 49.8543L265.869 49.8562 262.837 49.8562 262.837 45.5295 266.739 45.5295C266.98 45.5277 267.201 45.6667 267.303 45.8853L267.342 45.8853 267.342 44.0512 267.303 44.0512C267.125 44.1356 266.928 44.167 266.733 44.1417L266.082 44.1417 266.082 44.1437 262.837 44.1437 262.837 40.1275 266.988 40.1275C267.281 40.1701 267.533 40.3569 267.658 40.6248L267.698 40.6248 267.696 38.6571 267.658 38.6571C267.576 38.712 267.48 38.7421 267.381 38.7436L261.244 38.7436 261.244 38.7455 260.839 38.7455 260.839 38.7967C261.15 38.9303 261.226 39.4473 261.244 39.7068L261.244 50.2848C261.226 50.5462 261.15 51.0632 260.839 51.1949L260.839 51.248 263.251 51.248 263.251 51.2401 267.539 51.2401 268.123 48.9441 268.081 48.9441C267.631 49.5155 266.945 49.8512 266.218 49.8562" fill="#00487D" transform="matrix(1 0 0 1.01211 383 17.318)"/><path d="M290.766 38.7434 289.172 38.7434 289.172 38.7453 288.759 38.7453 288.759 38.7984C289.042 38.9183 289.14 39.3567 289.172 39.6339L289.172 50.3592C289.14 50.6344 289.042 51.0748 288.759 51.1947L288.759 51.2458 291.171 51.2458 291.171 51.1947C290.86 51.061 290.784 50.546 290.766 50.2845L290.766 39.7066C290.784 39.4471 290.86 38.9301 291.171 38.7985L291.171 38.7453 290.766 38.7453Z" fill="#00487D" transform="matrix(1 0 0 1.01211 383 17.318)"/><path d="M309.915 38.751 309.913 38.753 309.005 38.755 309.005 38.8061C309.446 39.1146 309.582 39.7064 309.32 40.1762L307.389 44.7919 305.471 40.0465 305.117 39.1855C304.948 38.8218 304.362 38.755 303.947 38.755L302.766 38.755C303.267 39.1339 303.636 39.6617 303.82 40.2627L306.522 46.4884 306.522 50.2883C306.503 50.5517 306.424 51.0569 306.12 51.1867L306.12 51.2397 306.522 51.2397 306.522 51.2495 308.117 51.2495 308.117 51.2397 308.518 51.2397 308.518 51.1867C308.215 51.0589 308.136 50.5674 308.117 50.3L308.117 46.4884 310.814 40.367 310.815 40.367 311.525 38.751Z" fill="#00487D" transform="matrix(1 0 0 1.01211 383 17.318)"/><path d="M301.034 38.7413 293.978 38.7413 293.831 38.7296C293.66 38.7075 293.493 38.659 293.336 38.5861L293.298 38.5861 292.842 40.6462 292.881 40.6462C293.241 40.239 293.785 40.0452 294.32 40.1331L294.32 40.1252 296.314 40.1252 296.314 50.1292 296.308 50.1292C296.308 50.1292 296.318 51.0138 295.899 51.1927L295.899 51.2438 298.311 51.2438 298.311 51.1927C298 51.059 297.924 50.542 297.907 50.2825L297.907 40.1253 299.927 40.1253 299.923 40.1332C300.354 40.1332 300.849 40.082 301.016 40.6875L301.056 40.6875 301.167 40.1253 301.195 40.1253 301.195 39.9936 301.47 38.6294 301.431 38.6294C301.309 38.6974 301.173 38.7358 301.034 38.7414" fill="#00487D" transform="matrix(1 0 0 1.01211 383 17.318)"/><path d="M281.27 41.7437C281.214 40.7837 281.946 39.9595 282.906 39.9029 283.001 39.8973 283.097 39.8996 283.192 39.9097 283.356 39.8953 283.52 39.8894 283.684 39.892L283.684 39.894C284.409 39.8743 285.834 40.1869 286.36 40.865L286.305 38.9131C285.456 38.651 284.574 38.5159 283.686 38.512L283.686 38.5356C283.564 38.5277 283.438 38.5239 283.313 38.5239 281.217 38.5239 279.642 39.7014 279.642 41.9168 279.642 45.6734 285.459 45.3609 285.459 48.1307 285.459 49.5205 284.431 50.0729 283.265 50.1416L282.508 50.124C281.42 50.1558 280.372 49.7132 279.637 48.9111L280.073 51.0617C281.122 51.4049 282.221 51.5716 283.324 51.5551L283.324 51.5334C285.269 51.4469 287.085 50.5545 287.085 48.0619 287.085 44.0989 281.27 44.4959 281.27 41.7437" fill="#00487D" transform="matrix(1 0 0 1.01211 383 17.318)"/><path d="M243.333 38.7412 241.913 38.7412 241.913 38.7451 241.506 38.7451 241.506 38.7963C241.844 38.9417 241.906 39.5374 241.915 39.7654L241.915 49.2778 237.022 38.7412 234.773 38.7412 234.773 38.7451 234.12 38.7451 234.12 38.7963C234.539 39.1279 234.78 39.6346 234.773 40.1684L234.773 50.2823C234.756 50.5438 234.679 51.0628 234.368 51.1945L234.368 51.2476 236.596 51.2476 236.596 51.1945C236.289 51.0648 236.21 50.5596 236.192 50.2962L236.192 40.4003 236.226 40.4003C236.226 40.4003 238.194 44.8234 240.248 49.1815 241.383 51.5837 243.333 51.4874 243.333 51.4874L243.333 39.7064C243.35 39.4469 243.427 38.9299 243.738 38.7962L243.738 38.7451 243.333 38.7451Z" fill="#00487D" transform="matrix(1 0 0 1.01211 383 17.318)"/><path d="M231.854 38.7434 230.26 38.7434 230.26 38.7453 229.859 38.7453 229.859 38.7984C230.165 38.9281 230.242 39.4333 230.26 39.6968L230.26 46.7402C230.26 49.4746 229.43 50.1666 227.924 50.1666 226.419 50.1666 225.587 49.4746 225.587 46.7402L225.587 39.7401C225.603 39.4943 225.668 38.936 225.994 38.7984L225.994 38.7453 225.587 38.7453 225.587 38.7434 223.997 38.7434 223.997 38.7453 223.582 38.7453 223.582 38.7984C224.001 38.9773 223.993 39.8599 223.993 39.8599L223.997 39.8599 223.997 46.6714C223.997 50.1313 225.274 51.4994 227.924 51.4994 230.573 51.4994 231.854 50.1312 231.854 46.6714L231.854 39.86 231.858 39.86C231.858 39.86 231.85 38.9773 232.271 38.7985L232.271 38.7453 231.854 38.7453Z" fill="#00487D" transform="matrix(1 0 0 1.01211 383 17.318)"/><path d="M277.259 49.7927 274.888 45.4306C276.391 45.0307 277.435 43.6661 277.428 42.1104 277.477 40.3058 276.054 38.8028 274.25 38.7533 274.196 38.7518 274.143 38.7517 274.09 38.7528L272.2 38.7489 272.2 38.745 269.789 38.745 269.789 38.7981C270.136 38.9454 270.19 39.5745 270.195 39.7848L270.195 50.1328 270.191 50.1328C270.191 50.1328 270.201 51.0155 269.782 51.1963L269.782 51.2454 272.216 51.2454 272.216 51.1963C271.798 51.0155 271.807 50.1328 271.807 50.1328L271.806 50.1328 271.807 45.523 273.036 45.525 275.704 50.5711C275.961 51.2454 276.691 51.2278 277.325 51.2278L278.544 51.2297 278.544 51.1767C277.986 50.8547 277.539 50.3725 277.259 49.7927M271.806 44.0939 271.809 40.1309 273.771 40.1328C274.866 40.0997 275.78 40.9602 275.813 42.0548 275.846 43.1493 274.986 44.0635 273.891 44.0966 273.844 44.098 273.797 44.0977 273.75 44.0958Z" fill="#00487D" transform="matrix(1 0 0 1.01211 383 17.318)"/><path d="M26.5547 46.4919C20.0036 44.3346 13.0387 43.7395 6.21662 44.7541L6.21662 13.2661C11.4899 11.7609 17.1149 12.0604 22.1985 14.1172L22.1985 8.62678C15.0892 6.03864 7.22585 6.5075 0.474516 9.92222L0.474516 15.9612C0.477942 15.9579 0.481937 15.9552 0.48631 15.9533L0.48631 46.0555C0.482379 46.0555 0.478419 46.0574 0.474516 46.0574L0.474516 51.5558C13.0576 47.0384 25.2612 52.0217 25.2612 52.0217 42.6565 58.7761 52.1552 55.3124 52.1552 55.3124L52.1552 47.2055C52.1552 47.2055 44.2468 52.1691 26.5547 46.4919" fill="#00487D" transform="matrix(1 0 0 1.01211 383 17.318)"/><path d="M46.3945 44.5892 46.3945 38.9473 46.3866 38.9454 46.3866 8.27311 46.3945 8.27507 46.3945 2.78663C46.3945 2.78663 34.6351-2.49151 22.2093 2.91244L22.2093 8.60734C28.8183 5.21043 35.8775 5.63897 40.6544 6.60029L40.6544 37.5202C36.4869 36.8204 30.5639 36.4941 24.6411 38.4324L24.6411 12.4918C25.7674 12.0691 27.173 11.5757 28.5962 11.1471 29.4415 10.8935 32.2703 10.1328 32.3116 13.0461 32.3332 14.4005 32.3548 15.1376 32.3116 16.9521 32.3392 17.4181 32.0685 17.8505 31.6373 18.0294 31.1075 18.2081 30.5637 18.3422 30.0116 18.4304L30.0116 20.923C30.0116 20.923 30.1178 20.9014 31.3208 20.7736 32.0835 20.695 32.3116 21.1333 32.3332 21.9354 32.3804 23.6888 32.3332 27.2155 32.3332 27.2155 32.3499 27.6351 32.2152 28.0467 31.9538 28.3753 31.541 28.8294 30.0077 28.9159 30.0077 28.9159L30.0116 31.3103C30.9476 31.2545 31.8749 31.0983 32.7775 30.8444 33.5183 30.5797 34.1251 30.0337 34.4661 29.3248 34.9084 28.1414 34.8415 23.2249 34.6764 20.9859 34.6231 20.1589 34.044 19.4601 33.2414 19.254 34.1208 18.8333 34.7026 17.9684 34.7609 16.9953L34.7609 12.1183C34.7609 8.7823 31.6373 7.72668 28.6394 8.57196 26.4441 9.12642 24.2918 9.83927 22.1995 10.7048L22.2034 13.4471 22.2034 41.2375 22.2133 41.2375 22.1995 45.2655C32.8187 38.8471 46.3945 44.5892 46.3945 44.5892" fill="#00487D" transform="matrix(1 0 0 1.01211 383 17.318)"/><path d="M26.5995 13.5727 26.5995 33.557 26.5897 35.9336C27.2423 35.7454 27.9061 35.5983 28.5772 35.4933 31.9303 34.9694 35.3399 34.9118 38.7088 35.3223L38.7088 33.3918 38.7127 33.3918 38.7127 8.31821C37.9192 8.10523 37.0982 8.01244 36.2771 8.04294L36.2771 32.8178C33.8596 32.701 31.4366 32.8016 29.0371 33.1186L29.0371 12.7943C28.1903 12.9306 27.3687 13.193 26.5996 13.5727" fill="#00487D" transform="matrix(1 0 0 1.01211 383 17.318)"/></g></svg>